<svg width="28" height="29" viewBox="0 0 28 29" fill="none" xmlns="http://www.w3.org/2000/svg">
<g clip-path="url(#clip0_2_770)">
<path d="M14 27.6875C21.4904 27.6875 27.5625 21.6154 27.5625 14.125C27.5625 6.63464 21.4904 0.5625 14 0.5625C6.50964 0.5625 0.4375 6.63464 0.4375 14.125C0.4375 21.6154 6.50964 27.6875 14 27.6875Z" stroke="#E5E5E5" stroke-width="0.875"/>
<path d="M19.8993 9.10071C19.5455 8.7471 19.1246 8.46773 18.6614 8.27901C18.1981 8.09029 17.7018 7.99601 17.2017 8.00171C16.2129 8.00171 15.2679 8.40158 14.5784 9.11033C14.3684 9.33346 14.1742 9.57233 14 9.82521C13.825 9.57233 13.6325 9.33346 13.4217 9.11033C13.0807 8.75963 12.6729 8.48084 12.2223 8.29042C11.7717 8.10001 11.2876 8.00183 10.7984 8.00171H10.7678C10.0259 7.99899 9.29991 8.21609 8.68133 8.62563C8.06275 9.03516 7.57936 9.61876 7.29216 10.3028C7.00496 10.9868 6.92684 11.7405 7.06764 12.4689C7.20844 13.1973 7.56186 13.8676 8.08329 14.3953L13.3639 19.9761C13.4457 20.0627 13.5443 20.1317 13.6537 20.1788C13.7631 20.226 13.8809 20.2503 14 20.2503C14.1192 20.2503 14.237 20.226 14.3464 20.1788C14.4558 20.1317 14.5544 20.0627 14.6362 19.9761L19.8993 14.412C20.2483 14.0633 20.5251 13.6494 20.714 13.1937C20.9028 12.738 21.0001 12.2496 21.0001 11.7563C21.0001 11.2631 20.9028 10.7746 20.714 10.319C20.5251 9.8633 20.2483 9.44933 19.8993 9.10071Z" fill="#3665F3"/>
</g>
<defs>
<clipPath id="clip0_2_770">
<rect width="28" height="28" fill="white" transform="translate(0 0.125)"/>
</clipPath>
</defs>
</svg>
